STARTFONT 2.1
FONT -lucy-tewifw-bold-r-double wide--11-80-100-100-c-60-ISO10646-1
SIZE 11 100 100
FONTBOUNDINGBOX 12 13 0 -3
STARTPROPERTIES 22
COPYRIGHT "© lucy <ne.tetewi@gmail.com>"
FOUNDRY "lucy"
FAMILY_NAME "tewifw"
WEIGHT_NAME "bold"
SLANT "r"
SETWIDTH_NAME "double wide"
ADD_STYLE_NAME ""
PIXEL_SIZE 11
POINT_SIZE 80
RESOLUTION_X 100
RESOLUTION_Y 100
SPACING "c"
AVERAGE_WIDTH 60
CHARSET_REGISTRY "ISO10646"
CHARSET_ENCODING "1"
FONT_ASCENT 9
FONT_DESCENT 3
UNDERLINE_POSITION -1
UNDERLINE_THICKNESS 1
NORM_SPACE 6
FIGURE_WIDTH 6
_GBDFED_INFO "Edited with gbdfed 1.6."
ENDPROPERTIES
CHARS 35
STARTCHAR <control>
ENCODING 0
SWIDTH 785 0
DWIDTH 12 0
BBX 0 0 0 0
BITMAP
ENDCHAR
STARTCHAR WAVY OVERLINE
ENCODING 65099
SWIDTH 785 0
DWIDTH 12 0
BBX 11 2 0 6
BITMAP
DDC0
7760
ENDCHAR
STARTCHAR WAVY LOW LINE
ENCODING 65103
SWIDTH 785 0
DWIDTH 12 0
BBX 11 2 0 -1
BITMAP
DDC0
7760
ENDCHAR
STARTCHAR FULLWIDTH EXCLAMATION MARK
ENCODING 65281
SWIDTH 785 0
DWIDTH 12 0
BBX 2 8 5 0
BITMAP
C0
C0
C0
C0
C0
C0
00
C0
ENDCHAR
STARTCHAR FULLWIDTH QUOTATION MARK
ENCODING 65282
SWIDTH 785 0
DWIDTH 12 0
BBX 5 3 3 5
BITMAP
D8
D8
D8
ENDCHAR
STARTCHAR FULLWIDTH NUMBER SIGN
ENCODING 65283
SWIDTH 785 0
DWIDTH 12 0
BBX 9 8 2 0
BITMAP
1B00
1B00
7F80
3600
3600
FF00
6C00
6C00
ENDCHAR
STARTCHAR FULLWIDTH DOLLAR SIGN
ENCODING 65284
SWIDTH 785 0
DWIDTH 12 0
BBX 8 9 2 -1
BITMAP
18
7E
DB
D8
7E
1B
DB
7E
18
ENDCHAR
STARTCHAR FULLWIDTH PERCENT SIGN
ENCODING 65285
SWIDTH 785 0
DWIDTH 12 0
BBX 9 8 2 0
BITMAP
6600
D600
D600
6C00
1B00
3680
6680
6300
ENDCHAR
STARTCHAR FULLWIDTH AMPERSAND
ENCODING 65286
SWIDTH 785 0
DWIDTH 12 0
BBX 9 8 2 0
BITMAP
3800
6C00
7800
3000
7380
CB00
CE00
7F00
ENDCHAR
STARTCHAR FULLWIDTH APOSTROPHE
ENCODING 65287
SWIDTH 785 0
DWIDTH 12 0
BBX 3 4 3 4
BITMAP
E0
E0
60
C0
ENDCHAR
STARTCHAR FULLWIDTH LEFT PARENTHESIS
ENCODING 65288
SWIDTH 785 0
DWIDTH 12 0
BBX 4 10 4 -2
BITMAP
30
60
60
C0
C0
C0
C0
60
60
30
ENDCHAR
STARTCHAR FULLWIDTH RIGHT PARENTHESIS
ENCODING 65289
SWIDTH 785 0
DWIDTH 12 0
BBX 4 10 4 -2
BITMAP
C0
60
60
30
30
30
30
60
60
C0
ENDCHAR
STARTCHAR FULLWIDTH ASTERISK
ENCODING 65290
SWIDTH 785 0
DWIDTH 12 0
BBX 5 7 3 0
BITMAP
20
A8
F8
70
F8
A8
20
ENDCHAR
STARTCHAR FULLWIDTH PLUS SIGN
ENCODING 65291
SWIDTH 785 0
DWIDTH 12 0
BBX 8 7 2 0
BITMAP
18
18
18
FF
18
18
18
ENDCHAR
STARTCHAR FULLWIDTH COMMA
ENCODING 65292
SWIDTH 785 0
DWIDTH 12 0
BBX 3 4 1 -2
BITMAP
E0
E0
60
C0
ENDCHAR
STARTCHAR FULLWIDTH HYPHEN-MINUS
ENCODING 65293
SWIDTH 785 0
DWIDTH 12 0
BBX 9 1 1 3
BITMAP
FF80
ENDCHAR
STARTCHAR FULLWIDTH FULL STOP
ENCODING 65294
SWIDTH 785 0
DWIDTH 12 0
BBX 3 2 1 0
BITMAP
E0
E0
ENDCHAR
STARTCHAR FULLWIDTH SOLIDUS
ENCODING 65295
SWIDTH 785 0
DWIDTH 12 0
BBX 10 9 1 -2
BITMAP
00C0
0180
0300
0600
0C00
1800
3000
6000
C000
ENDCHAR
STARTCHAR FULLWIDTH DIGIT ZERO
ENCODING 65296
SWIDTH 785 0
DWIDTH 12 0
BBX 6 8 2 0
BITMAP
78
CC
DC
DC
F4
F4
E4
78
ENDCHAR
STARTCHAR FULLWIDTH DIGIT ONE
ENCODING 65297
SWIDTH 785 0
DWIDTH 12 0
BBX 6 8 3 0
BITMAP
30
70
F0
30
30
30
30
FC
ENDCHAR
STARTCHAR FULLWIDTH DIGIT TWO
ENCODING 65298
SWIDTH 785 0
DWIDTH 12 0
BBX 6 8 2 0
BITMAP
78
CC
CC
0C
18
30
60
FC
ENDCHAR
STARTCHAR FULLWIDTH DIGIT THREE
ENCODING 65299
SWIDTH 785 0
DWIDTH 12 0
BBX 6 8 2 0
BITMAP
78
CC
0C
38
0C
0C
CC
78
ENDCHAR
STARTCHAR FULLWIDTH DIGIT FOUR
ENCODING 65300
SWIDTH 785 0
DWIDTH 12 0
BBX 6 8 2 0
BITMAP
08
18
38
58
D8
FC
08
1C
ENDCHAR
STARTCHAR FULLWIDTH DIGIT FIVE
ENCODING 65301
SWIDTH 785 0
DWIDTH 12 0
BBX 6 8 2 0
BITMAP
FC
C0
C0
78
0C
0C
CC
78
ENDCHAR
STARTCHAR FULLWIDTH DIGIT SIX
ENCODING 65302
SWIDTH 785 0
DWIDTH 12 0
BBX 6 8 2 0
BITMAP
78
C0
C0
F8
CC
CC
CC
78
ENDCHAR
STARTCHAR FULLWIDTH DIGIT SEVEN
ENCODING 65303
SWIDTH 785 0
DWIDTH 12 0
BBX 6 8 2 0
BITMAP
FC
0C
0C
18
18
30
30
30
ENDCHAR
STARTCHAR FULLWIDTH DIGIT EIGHT
ENCODING 65304
SWIDTH 785 0
DWIDTH 12 0
BBX 6 8 2 0
BITMAP
78
CC
CC
78
CC
CC
CC
78
ENDCHAR
STARTCHAR FULLWIDTH DIGIT NINE
ENCODING 65305
SWIDTH 785 0
DWIDTH 12 0
BBX 6 8 2 0
BITMAP
78
CC
CC
CC
7C
0C
0C
78
ENDCHAR
STARTCHAR FULLWIDTH COLON
ENCODING 65306
SWIDTH 785 0
DWIDTH 12 0
BBX 3 6 1 0
BITMAP
E0
E0
00
00
E0
E0
ENDCHAR
STARTCHAR FULLWIDTH SEMICOLON
ENCODING 65307
SWIDTH 785 0
DWIDTH 12 0
BBX 3 8 1 -2
BITMAP
E0
E0
00
00
E0
E0
60
C0
ENDCHAR
STARTCHAR FULLWIDTH LESS-THAN SIGN
ENCODING 65308
SWIDTH 785 0
DWIDTH 12 0
BBX 6 9 3 -1
BITMAP
0C
18
30
60
C0
60
30
18
0C
ENDCHAR
STARTCHAR FULLWIDTH EQUALS SIGN
ENCODING 65309
SWIDTH 785 0
DWIDTH 12 0
BBX 6 4 2 2
BITMAP
FC
00
00
FC
ENDCHAR
STARTCHAR FULLWIDTH GREATER-THAN SIGN
ENCODING 65310
SWIDTH 785 0
DWIDTH 12 0
BBX 6 9 3 -1
BITMAP
C0
60
30
18
0C
18
30
60
C0
ENDCHAR
STARTCHAR FULLWIDTH QUESTION MARK
ENCODING 65311
SWIDTH 785 0
DWIDTH 12 0
BBX 6 8 2 0
BITMAP
78
CC
CC
18
30
30
00
30
ENDCHAR
STARTCHAR FULLWIDTH COMMERCIAL AT
ENCODING 65312
SWIDTH 785 0
DWIDTH 12 0
BBX 9 8 2 0
BITMAP
3E00
6300
DD80
B580
B580
DB00
6000
3E00
ENDCHAR
ENDFONT
